umbra-8.ufo
<glyph name="dollar" format="1">
  <advance width="449"/>
  <unicode hex="0024"/>
  <outline>
    <contour>
      <point x="209" y="277" type="curve" smooth="yes"/>
      <point x="209" y="337"/>
      <point x="-24" y="340"/>
      <point x="-24" y="490" type="curve" smooth="yes"/>
      <point x="-24" y="569"/>
      <point x="32" y="620"/>
      <point x="110" y="636" type="curve"/>
      <point x="95" y="697" type="line"/>
      <point x="235" y="697" type="line"/>
      <point x="220" y="636" type="line"/>
      <point x="266" y="624"/>
      <point x="308" y="597"/>
      <point x="345" y="555" type="curve"/>
      <point x="305" y="445" type="line"/>
      <point x="265" y="483"/>
      <point x="217" y="522"/>
      <point x="169" y="522" type="curve" smooth="yes"/>
      <point x="141" y="522"/>
      <point x="131" y="508"/>
      <point x="131" y="490" type="curve" smooth="yes"/>
      <point x="131" y="430"/>
      <point x="354" y="423"/>
      <point x="354" y="279" type="curve" smooth="yes"/>
      <point x="354" y="174"/>
      <point x="289" y="129"/>
      <point x="206" y="116" type="curve"/>
      <point x="222" y="52" type="line"/>
      <point x="82" y="52" type="line"/>
      <point x="98" y="116" type="line"/>
      <point x="29" y="126"/>
      <point x="-23" y="156"/>
      <point x="-55" y="194" type="curve"/>
      <point x="-15" y="309" type="line"/>
      <point x="25" y="271"/>
      <point x="94" y="237"/>
      <point x="142" y="237" type="curve" smooth="yes"/>
      <point x="180" y="237"/>
      <point x="209" y="246"/>
    </contour>
  </outline>
</glyph>
<glyph name="ampersand" format="1">
  <advance width="487"/>
  <unicode hex="0026"/>
  <outline>
    <contour>
      <point x="220" y="336" type="line"/>
      <point x="187" y="336" type="line" smooth="yes"/>
      <point x="139" y="336"/>
      <point x="105" y="325"/>
      <point x="105" y="287" type="curve" smooth="yes"/>
      <point x="105" y="256"/>
      <point x="132" y="237"/>
      <point x="165" y="237" type="curve" smooth="yes"/>
      <point x="188" y="237"/>
      <point x="220" y="250"/>
      <point x="220" y="281" type="curve" smooth="yes"/>
    </contour>
    <contour>
      <point x="130" y="484" type="curve" smooth="yes"/>
      <point x="130" y="456"/>
      <point x="139" y="431"/>
      <point x="187" y="431" type="curve" smooth="yes"/>
      <point x="387" y="431" type="line"/>
      <point x="387" y="336" type="line"/>
      <point x="335" y="336" type="line"/>
      <point x="339" y="320"/>
      <point x="340" y="298"/>
      <point x="340" y="254" type="curve" smooth="yes"/>
      <point x="340" y="159"/>
      <point x="246" y="112"/>
      <point x="157" y="112" type="curve" smooth="yes"/>
      <point x="70" y="112"/>
      <point x="-35" y="162"/>
      <point x="-35" y="279" type="curve" smooth="yes"/>
      <point x="-35" y="335"/>
      <point x="-4" y="374"/>
      <point x="50" y="394" type="curve"/>
      <point x="5" y="412"/>
      <point x="-21" y="445"/>
      <point x="-21" y="500" type="curve" smooth="yes"/>
      <point x="-21" y="597"/>
      <point x="64" y="642"/>
      <point x="151" y="642" type="curve" smooth="yes"/>
      <point x="238" y="642"/>
      <point x="298" y="592"/>
      <point x="318" y="565" type="curve"/>
      <point x="278" y="475" type="line"/>
      <point x="238" y="513"/>
      <point x="200" y="522"/>
      <point x="172" y="522" type="curve" smooth="yes"/>
      <point x="144" y="522"/>
      <point x="130" y="507"/>
    </contour>
  </outline>
</glyph>
<glyph name="parenright" format="1">
  <advance width="232"/>
  <unicode hex="0029"/>
  <outline>
    <contour>
      <point x="20" y="678" type="line"/>
      <point x="95" y="593"/>
      <point x="132" y="488"/>
      <point x="132" y="383" type="curve" smooth="yes"/>
      <point x="132" y="278"/>
      <point x="95" y="173"/>
      <point x="20" y="88" type="curve"/>
      <point x="-70" y="88" type="line"/>
      <point x="-20" y="163"/>
      <point x="4" y="273"/>
      <point x="4" y="383" type="curve" smooth="yes"/>
      <point x="4" y="493"/>
      <point x="-20" y="603"/>
      <point x="-70" y="678" type="curve"/>
    </contour>
  </outline>
</glyph>
<glyph name="plus" format="1">
  <advance width="560"/>
  <unicode hex="002B"/>
  <outline>
    <contour>
      <point x="15" y="317" type="line"/>
      <point x="15" y="427" type="line"/>
      <point x="140" y="427" type="line"/>
      <point x="140" y="547" type="line"/>
      <point x="280" y="547" type="line"/>
      <point x="280" y="427" type="line"/>
      <point x="405" y="427" type="line"/>
      <point x="405" y="317" type="line"/>
      <point x="280" y="317" type="line"/>
      <point x="280" y="197" type="line"/>
      <point x="140" y="197" type="line"/>
      <point x="140" y="317" type="line"/>
    </contour>
  </outline>
</glyph>
<glyph name="comma" format="1">
  <advance width="220"/>
  <unicode hex="002C"/>
  <outline>
    <contour>
      <point x="-25" y="7" type="line"/>
      <point x="-25" y="267" type="line"/>
      <point x="105" y="267" type="line"/>
      <point x="105" y="127" type="line"/>
    </contour>
  </outline>
</glyph>
<glyph name="slash" format="1">
  <advance width="460"/>
  <unicode hex="002F"/>
  <outline>
    <contour>
      <point x="-60" y="127" type="line"/>
      <point x="250" y="627" type="line"/>
      <point x="380" y="627" type="line"/>
      <point x="70" y="127" type="line"/>
    </contour>
  </outline>
</glyph>
<glyph name="zero" format="1">
  <advance width="510"/>
  <unicode hex="0030"/>
  <outline>
    <contour>
      <point x="-40" y="377" type="curve" smooth="yes"/>
      <point x="-40" y="526"/>
      <point x="30" y="647"/>
      <point x="185" y="647" type="curve" smooth="yes"/>
      <point x="340" y="647"/>
      <point x="410" y="526"/>
      <point x="410" y="377" type="curve" smooth="yes"/>
      <point x="410" y="228"/>
      <point x="340" y="107"/>
      <point x="185" y="107" type="curve" smooth="yes"/>
      <point x="30" y="107"/>
      <point x="-40" y="228"/>
    </contour>
    <contour>
      <point x="105" y="377" type="curve" smooth="yes"/>
      <point x="105" y="284"/>
      <point x="133" y="232"/>
      <point x="185" y="232" type="curve" smooth="yes"/>
      <point x="237" y="232"/>
      <point x="265" y="284"/>
      <point x="265" y="377" type="curve" smooth="yes"/>
      <point x="265" y="470"/>
      <point x="237" y="522"/>
      <point x="185" y="522" type="curve" smooth="yes"/>
      <point x="133" y="522"/>
      <point x="105" y="470"/>
    </contour>
  </outline>
</glyph>
<glyph name="six" format="1">
  <advance width="474"/>
  <unicode hex="0036"/>
  <outline>
    <contour>
      <point x="105" y="289" type="curve" smooth="yes"/>
      <point x="105" y="261"/>
      <point x="124" y="232"/>
      <point x="172" y="232" type="curve" smooth="yes"/>
      <point x="220" y="232"/>
      <point x="239" y="261"/>
      <point x="239" y="289" type="curve" smooth="yes"/>
      <point x="239" y="317"/>
      <point x="220" y="346"/>
      <point x="172" y="346" type="curve" smooth="yes"/>
      <point x="124" y="346"/>
      <point x="105" y="317"/>
    </contour>
    <contour>
      <point x="369" y="289" type="curve" smooth="yes"/>
      <point x="369" y="182"/>
      <point x="294" y="117"/>
      <point x="177" y="117" type="curve" smooth="yes"/>
      <point x="20" y="117"/>
      <point x="-35" y="242"/>
      <point x="-35" y="359" type="curve" smooth="yes"/>
      <point x="-35" y="486"/>
      <point x="41" y="637"/>
      <point x="178" y="637" type="curve" smooth="yes"/>
      <point x="255" y="637"/>
      <point x="325" y="602"/>
      <point x="365" y="555" type="curve"/>
      <point x="324" y="449" type="line"/>
      <point x="284" y="487"/>
      <point x="247" y="517"/>
      <point x="199" y="517" type="curve" smooth="yes"/>
      <point x="131" y="517"/>
      <point x="102" y="458"/>
      <point x="96" y="390" type="curve"/>
      <point x="126" y="427"/>
      <point x="172" y="441"/>
      <point x="207" y="441" type="curve" smooth="yes"/>
      <point x="274" y="441"/>
      <point x="369" y="396"/>
    </contour>
  </outline>
</glyph>
<glyph name="nine" format="1">
  <advance width="474"/>
  <unicode hex="0039"/>
  <outline>
    <contour>
      <point x="229" y="465" type="curve" smooth="yes"/>
      <point x="229" y="493"/>
      <point x="210" y="522"/>
      <point x="162" y="522" type="curve" smooth="yes"/>
      <point x="114" y="522"/>
      <point x="95" y="493"/>
      <point x="95" y="465" type="curve" smooth="yes"/>
      <point x="95" y="437"/>
      <point x="114" y="408"/>
      <point x="162" y="408" type="curve" smooth="yes"/>
      <point x="210" y="408"/>
      <point x="229" y="437"/>
    </contour>
    <contour>
      <point x="-35" y="465" type="curve" smooth="yes"/>
      <point x="-35" y="572"/>
      <point x="40" y="637"/>
      <point x="157" y="637" type="curve" smooth="yes"/>
      <point x="314" y="637"/>
      <point x="369" y="512"/>
      <point x="369" y="395" type="curve" smooth="yes"/>
      <point x="369" y="268"/>
      <point x="293" y="117"/>
      <point x="156" y="117" type="curve" smooth="yes"/>
      <point x="79" y="117"/>
      <point x="9" y="152"/>
      <point x="-31" y="199" type="curve"/>
      <point x="10" y="305" type="line"/>
      <point x="50" y="267"/>
      <point x="87" y="237"/>
      <point x="135" y="237" type="curve" smooth="yes"/>
      <point x="203" y="237"/>
      <point x="232" y="296"/>
      <point x="238" y="364" type="curve"/>
      <point x="208" y="327"/>
      <point x="162" y="313"/>
      <point x="127" y="313" type="curve" smooth="yes"/>
      <point x="60" y="313"/>
      <point x="-35" y="358"/>
    </contour>
  </outline>
</glyph>
<glyph name="colon" format="1">
  <advance width="291"/>
  <unicode hex="003A"/>
  <outline>
    <contour>
      <point x="75" y="384" type="line"/>
      <point x="-30" y="489" type="line"/>
      <point x="75" y="595" type="line"/>
      <point x="181" y="489" type="line"/>
    </contour>
    <contour>
      <point x="75" y="99" type="line"/>
      <point x="-30" y="204" type="line"/>
      <point x="75" y="310" type="line"/>
      <point x="181" y="204" type="line"/>
    </contour>
  </outline>
</glyph>
<glyph name="C" format="1">
  <advance width="515"/>
  <unicode hex="0043"/>
  <outline>
    <contour>
      <point x="105" y="377" type="curve" smooth="yes"/>
      <point x="105" y="284"/>
      <point x="178" y="232"/>
      <point x="235" y="232" type="curve" smooth="yes"/>
      <point x="296" y="232"/>
      <point x="340" y="255"/>
      <point x="365" y="288" type="curve"/>
      <point x="405" y="161" type="line"/>
      <point x="373" y="129"/>
      <point x="326" y="107"/>
      <point x="245" y="107" type="curve" smooth="yes"/>
      <point x="70" y="107"/>
      <point x="-40" y="228"/>
      <point x="-40" y="377" type="curve" smooth="yes"/>
      <point x="-40" y="526"/>
      <point x="70" y="647"/>
      <point x="245" y="647" type="curve" smooth="yes"/>
      <point x="326" y="647"/>
      <point x="373" y="625"/>
      <point x="405" y="593" type="curve"/>
      <point x="365" y="466" type="line"/>
      <point x="340" y="499"/>
      <point x="296" y="522"/>
      <point x="235" y="522" type="curve" smooth="yes"/>
      <point x="178" y="522"/>
      <point x="105" y="470"/>
    </contour>
  </outline>
</glyph>
<glyph name="F" format="1">
  <advance width="450"/>
  <unicode hex="0046"/>
  <outline>
    <contour>
      <point x="-25" y="127" type="line"/>
      <point x="-25" y="627" type="line"/>
      <point x="102" y="627"/>
      <point x="228" y="627"/>
      <point x="355" y="627" type="curve"/>
      <point x="355" y="507" type="line"/>
      <point x="115" y="507" type="line"/>
      <point x="115" y="417" type="line"/>
      <point x="325" y="417" type="line"/>
      <point x="325" y="292" type="line"/>
      <point x="115" y="292" type="line"/>
      <point x="115" y="127" type="line"/>
    </contour>
  </outline>
</glyph>
<glyph name="J" format="1">
  <advance width="319"/>
  <unicode hex="004A"/>
  <outline>
    <contour>
      <point x="64" y="137" type="curve" smooth="yes"/>
      <point x="64" y="627" type="line"/>
      <point x="204" y="627" type="line"/>
      <point x="204" y="97" type="line" smooth="yes"/>
      <point x="204" y="0"/>
      <point x="114" y="-55"/>
      <point x="37" y="-55" type="curve" smooth="yes"/>
      <point x="-30" y="-55"/>
      <point x="-70" y="-35"/>
      <point x="-120" y="12" type="curve"/>
      <point x="-70" y="117" type="line"/>
      <point x="-30" y="79"/>
      <point x="-1" y="65"/>
      <point x="17" y="65" type="curve" smooth="yes"/>
      <point x="45" y="65"/>
      <point x="64" y="79"/>
    </contour>
  </outline>
</glyph>
<glyph name="K" format="1">
  <advance width="525"/>
  <unicode hex="004B"/>
  <outline>
    <contour>
      <point x="-25" y="127" type="line"/>
      <point x="-25" y="627" type="line"/>
      <point x="115" y="627" type="line"/>
      <point x="115" y="420" type="line"/>
      <point x="275" y="627" type="line"/>
      <point x="445" y="627" type="line"/>
      <point x="265" y="407" type="line"/>
      <point x="455" y="127" type="line"/>
      <point x="275" y="127" type="line"/>
      <point x="115" y="363" type="line"/>
      <point x="115" y="127" type="line"/>
    </contour>
  </outline>
</glyph>
<glyph name="L" format="1">
  <advance width="445"/>
  <unicode hex="004C"/>
  <outline>
    <contour>
      <point x="-25" y="127" type="curve"/>
      <point x="-25" y="627" type="line"/>
      <point x="115" y="627" type="line"/>
      <point x="115" y="247" type="line"/>
      <point x="355" y="247" type="line"/>
      <point x="355" y="127" type="line"/>
      <point x="228" y="127"/>
      <point x="102" y="127"/>
    </contour>
  </outline>
</glyph>
<glyph name="M" format="1">
  <advance width="690"/>
  <unicode hex="004D"/>
  <outline>
    <contour>
      <point x="-25" y="127" type="line"/>
      <point x="-25" y="627" type="line"/>
      <point x="115" y="627" type="line"/>
      <point x="275" y="357" type="line"/>
      <point x="435" y="627" type="line"/>
      <point x="575" y="627" type="line"/>
      <point x="575" y="127" type="line"/>
      <point x="435" y="127" type="line"/>
      <point x="435" y="387" type="line"/>
      <point x="275" y="117" type="line"/>
      <point x="115" y="387" type="line"/>
      <point x="115" y="127" type="line"/>
    </contour>
  </outline>
</glyph>
<glyph name="O" format="1">
  <advance width="610"/>
  <unicode hex="004F"/>
  <outline>
    <contour>
      <point x="-40" y="377" type="curve" smooth="yes"/>
      <point x="-40" y="526"/>
      <point x="60" y="647"/>
      <point x="235" y="647" type="curve" smooth="yes"/>
      <point x="410" y="647"/>
      <point x="510" y="526"/>
      <point x="510" y="377" type="curve" smooth="yes"/>
      <point x="510" y="228"/>
      <point x="410" y="107"/>
      <point x="235" y="107" type="curve" smooth="yes"/>
      <point x="60" y="107"/>
      <point x="-40" y="228"/>
    </contour>
    <contour>
      <point x="105" y="377" type="curve" smooth="yes"/>
      <point x="105" y="284"/>
      <point x="173" y="232"/>
      <point x="235" y="232" type="curve" smooth="yes"/>
      <point x="297" y="232"/>
      <point x="365" y="284"/>
      <point x="365" y="377" type="curve" smooth="yes"/>
      <point x="365" y="470"/>
      <point x="297" y="522"/>
      <point x="235" y="522" type="curve" smooth="yes"/>
      <point x="173" y="522"/>
      <point x="105" y="470"/>
    </contour>
  </outline>
</glyph>
<glyph name="Q" format="1">
  <advance width="610"/>
  <unicode hex="0051"/>
  <outline>
    <contour>
      <point x="-40" y="377" type="curve" smooth="yes"/>
      <point x="-40" y="526"/>
      <point x="60" y="647"/>
      <point x="235" y="647" type="curve" smooth="yes"/>
      <point x="410" y="647"/>
      <point x="510" y="526"/>
      <point x="510" y="377" type="curve" smooth="yes"/>
      <point x="510" y="261"/>
      <point x="450" y="162"/>
      <point x="341" y="124" type="curve"/>
      <point x="495" y="-23" type="line"/>
      <point x="295" y="-23" type="line"/>
      <point x="181" y="111" type="line"/>
      <point x="40" y="133"/>
      <point x="-40" y="244"/>
    </contour>
    <contour>
      <point x="105" y="377" type="curve" smooth="yes"/>
      <point x="105" y="284"/>
      <point x="173" y="232"/>
      <point x="235" y="232" type="curve" smooth="yes"/>
      <point x="297" y="232"/>
      <point x="365" y="284"/>
      <point x="365" y="377" type="curve" smooth="yes"/>
      <point x="365" y="470"/>
      <point x="297" y="522"/>
      <point x="235" y="522" type="curve" smooth="yes"/>
      <point x="173" y="522"/>
      <point x="105" y="470"/>
    </contour>
  </outline>
</glyph>
<glyph name="V" format="1">
  <advance width="580"/>
  <unicode hex="0056"/>
  <outline>
    <contour>
      <point x="500" y="627" type="line"/>
      <point x="300" y="127" type="line"/>
      <point x="140" y="127" type="line"/>
      <point x="-60" y="627" type="line"/>
      <point x="90" y="627" type="line"/>
      <point x="220" y="266" type="line"/>
      <point x="350" y="627" type="line"/>
    </contour>
  </outline>
</glyph>
<glyph name="W" format="1">
  <advance width="880"/>
  <unicode hex="0057"/>
  <outline>
    <contour>
      <point x="790" y="627" type="line"/>
      <point x="600" y="127" type="line"/>
      <point x="440" y="127" type="line"/>
      <point x="372" y="322" type="line"/>
      <point x="300" y="127" type="line"/>
      <point x="140" y="127" type="line"/>
      <point x="-50" y="627" type="line"/>
      <point x="100" y="627" type="line"/>
      <point x="224" y="262" type="line"/>
      <point x="311" y="480" type="line"/>
      <point x="250" y="627" type="line"/>
      <point x="410" y="627" type="line"/>
      <point x="522" y="279" type="line"/>
      <point x="640" y="627" type="line"/>
    </contour>
  </outline>
</glyph>
<glyph name="X" format="1">
  <advance width="620"/>
  <unicode hex="0058"/>
  <outline>
    <contour>
      <point x="530" y="127" type="line"/>
      <point x="360" y="127" type="line"/>
      <point x="240" y="281" type="line"/>
      <point x="120" y="127" type="line"/>
      <point x="-50" y="127" type="line"/>
      <point x="155" y="390" type="line"/>
      <point x="-30" y="627" type="line"/>
      <point x="140" y="627" type="line"/>
      <point x="240" y="499" type="line"/>
      <point x="340" y="627" type="line"/>
      <point x="510" y="627" type="line"/>
      <point x="325" y="390" type="line"/>
    </contour>
  </outline>
</glyph>
<glyph name="b" format="1">
  <advance width="499"/>
  <unicode hex="0062"/>
  <outline>
    <contour>
      <point x="-30" y="127" type="line"/>
      <point x="-30" y="657" type="line"/>
      <point x="105" y="657" type="line"/>
      <point x="105" y="473" type="line"/>
      <point x="136" y="504"/>
      <point x="177" y="522"/>
      <point x="222" y="522" type="curve" smooth="yes"/>
      <point x="329" y="522"/>
      <point x="394" y="436"/>
      <point x="394" y="319" type="curve" smooth="yes"/>
      <point x="394" y="202"/>
      <point x="329" y="117"/>
      <point x="222" y="117" type="curve" smooth="yes"/>
      <point x="177" y="117"/>
      <point x="136" y="137"/>
      <point x="105" y="169" type="curve"/>
      <point x="105" y="127" type="line"/>
    </contour>
    <contour>
      <point x="105" y="260" type="line"/>
      <point x="124" y="236"/>
      <point x="153" y="222"/>
      <point x="182" y="222" type="curve" smooth="yes"/>
      <point x="230" y="222"/>
      <point x="259" y="261"/>
      <point x="259" y="319" type="curve" smooth="yes"/>
      <point x="259" y="377"/>
      <point x="230" y="417"/>
      <point x="182" y="417" type="curve" smooth="yes"/>
      <point x="153" y="417"/>
      <point x="124" y="402"/>
      <point x="105" y="378" type="curve"/>
    </contour>
  </outline>
</glyph>
<glyph name="d" format="1">
  <advance width="499"/>
  <unicode hex="0064"/>
  <outline>
    <contour>
      <point x="389" y="127" type="line"/>
      <point x="254" y="127" type="line"/>
      <point x="254" y="169" type="line"/>
      <point x="223" y="137"/>
      <point x="182" y="117"/>
      <point x="137" y="117" type="curve" smooth="yes"/>
      <point x="30" y="117"/>
      <point x="-35" y="202"/>
      <point x="-35" y="319" type="curve" smooth="yes"/>
      <point x="-35" y="436"/>
      <point x="30" y="522"/>
      <point x="137" y="522" type="curve" smooth="yes"/>
      <point x="182" y="522"/>
      <point x="223" y="504"/>
      <point x="254" y="473" type="curve"/>
      <point x="254" y="657" type="line"/>
      <point x="389" y="657" type="line"/>
    </contour>
    <contour>
      <point x="254" y="378" type="line"/>
      <point x="235" y="402"/>
      <point x="206" y="417"/>
      <point x="177" y="417" type="curve" smooth="yes"/>
      <point x="129" y="417"/>
      <point x="100" y="377"/>
      <point x="100" y="319" type="curve" smooth="yes"/>
      <point x="100" y="261"/>
      <point x="129" y="222"/>
      <point x="177" y="222" type="curve" smooth="yes"/>
      <point x="206" y="222"/>
      <point x="235" y="236"/>
      <point x="254" y="260" type="curve"/>
    </contour>
  </outline>
</glyph>
<glyph name="e" format="1">
  <advance width="469"/>
  <unicode hex="0065"/>
  <outline>
    <contour>
      <point x="-30" y="319" type="curve" smooth="yes"/>
      <point x="-30" y="446"/>
      <point x="55" y="522"/>
      <point x="172" y="522" type="curve" smooth="yes"/>
      <point x="289" y="522"/>
      <point x="364" y="446"/>
      <point x="364" y="339" type="curve"/>
      <point x="122" y="250" type="line"/>
      <point x="138" y="230"/>
      <point x="161" y="217"/>
      <point x="192" y="217" type="curve" smooth="yes"/>
      <point x="235" y="217"/>
      <point x="262" y="241"/>
      <point x="284" y="275" type="curve"/>
      <point x="344" y="182" type="line"/>
      <point x="308" y="138"/>
      <point x="250" y="117"/>
      <point x="182" y="117" type="curve" smooth="yes"/>
      <point x="65" y="117"/>
      <point x="-30" y="192"/>
    </contour>
    <contour>
      <point x="248" y="393" type="line"/>
      <point x="233" y="413"/>
      <point x="209" y="426"/>
      <point x="175" y="426" type="curve" smooth="yes"/>
      <point x="120" y="426"/>
      <point x="98" y="380"/>
      <point x="95" y="335" type="curve"/>
    </contour>
  </outline>
</glyph>
<glyph name="j" format="1">
  <advance width="277"/>
  <unicode hex="006A"/>
  <outline>
    <contour>
      <point x="4" y="512" type="line"/>
      <point x="139" y="512" type="line"/>
      <point x="139" y="31" type="line" smooth="yes"/>
      <point x="139" y="-66"/>
      <point x="54" y="-121"/>
      <point x="-23" y="-121" type="curve" smooth="yes"/>
      <point x="-90" y="-121"/>
      <point x="-120" y="-106"/>
      <point x="-170" y="-59" type="curve"/>
      <point x="-130" y="41" type="line"/>
      <point x="-90" y="3"/>
      <point x="-61" y="-11"/>
      <point x="-43" y="-11" type="curve" smooth="yes"/>
      <point x="-15" y="-11"/>
      <point x="4" y="3"/>
      <point x="4" y="61" type="curve" smooth="yes"/>
    </contour>
    <contour>
      <point x="71" y="569" type="line"/>
      <point x="-24" y="664" type="line"/>
      <point x="71" y="760" type="line"/>
      <point x="167" y="664" type="line"/>
    </contour>
  </outline>
</glyph>
<glyph name="p" format="1">
  <advance width="499"/>
  <unicode hex="0070"/>
  <outline>
    <contour>
      <point x="-30" y="512" type="line"/>
      <point x="105" y="512" type="line"/>
      <point x="105" y="470" type="line"/>
      <point x="136" y="502"/>
      <point x="177" y="522"/>
      <point x="222" y="522" type="curve" smooth="yes"/>
      <point x="329" y="522"/>
      <point x="394" y="437"/>
      <point x="394" y="320" type="curve" smooth="yes"/>
      <point x="394" y="203"/>
      <point x="329" y="117"/>
      <point x="222" y="117" type="curve" smooth="yes"/>
      <point x="177" y="117"/>
      <point x="136" y="135"/>
      <point x="105" y="166" type="curve"/>
      <point x="105" y="-18" type="line"/>
      <point x="-30" y="-18" type="line"/>
    </contour>
    <contour>
      <point x="105" y="261" type="line"/>
      <point x="124" y="237"/>
      <point x="153" y="222"/>
      <point x="182" y="222" type="curve" smooth="yes"/>
      <point x="230" y="222"/>
      <point x="259" y="262"/>
      <point x="259" y="320" type="curve" smooth="yes"/>
      <point x="259" y="378"/>
      <point x="230" y="417"/>
      <point x="182" y="417" type="curve" smooth="yes"/>
      <point x="153" y="417"/>
      <point x="124" y="403"/>
      <point x="105" y="379" type="curve"/>
    </contour>
  </outline>
</glyph>
<glyph name="q" format="1">
  <advance width="499"/>
  <unicode hex="0071"/>
  <outline>
    <contour>
      <point x="394" y="512" type="line"/>
      <point x="394" y="-18" type="line"/>
      <point x="259" y="-18" type="line"/>
      <point x="259" y="166" type="line"/>
      <point x="228" y="135"/>
      <point x="187" y="117"/>
      <point x="142" y="117" type="curve" smooth="yes"/>
      <point x="35" y="117"/>
      <point x="-30" y="203"/>
      <point x="-30" y="320" type="curve" smooth="yes"/>
      <point x="-30" y="437"/>
      <point x="35" y="522"/>
      <point x="142" y="522" type="curve" smooth="yes"/>
      <point x="187" y="522"/>
      <point x="228" y="502"/>
      <point x="259" y="470" type="curve"/>
      <point x="259" y="512" type="line"/>
    </contour>
    <contour>
      <point x="259" y="379" type="line"/>
      <point x="240" y="403"/>
      <point x="211" y="417"/>
      <point x="182" y="417" type="curve" smooth="yes"/>
      <point x="134" y="417"/>
      <point x="105" y="378"/>
      <point x="105" y="320" type="curve" smooth="yes"/>
      <point x="105" y="262"/>
      <point x="134" y="222"/>
      <point x="182" y="222" type="curve" smooth="yes"/>
      <point x="211" y="222"/>
      <point x="240" y="237"/>
      <point x="259" y="261" type="curve"/>
    </contour>
  </outline>
</glyph>
<glyph name="r" format="1">
  <advance width="374"/>
  <unicode hex="0072"/>
  <outline>
    <contour>
      <point x="304" y="449" type="curve"/>
      <point x="229" y="349" type="line"/>
      <point x="209" y="377"/>
      <point x="200" y="397"/>
      <point x="162" y="397" type="curve" smooth="yes"/>
      <point x="143" y="397"/>
      <point x="122" y="385"/>
      <point x="105" y="367" type="curve"/>
      <point x="105" y="127" type="line"/>
      <point x="-30" y="127" type="line"/>
      <point x="-30" y="512" type="line"/>
      <point x="85" y="512" type="line"/>
      <point x="94" y="437" type="line"/>
      <point x="123" y="485"/>
      <point x="165" y="517"/>
      <point x="202" y="517" type="curve" smooth="yes"/>
      <point x="259" y="517"/>
      <point x="284" y="476"/>
    </contour>
  </outline>
</glyph>
<glyph name="v" format="1">
  <advance width="465"/>
  <unicode hex="0076"/>
  <outline>
    <contour>
      <point x="90" y="127" type="line"/>
      <point x="-60" y="512" type="line"/>
      <point x="85" y="512" type="line"/>
      <point x="166" y="228" type="line"/>
      <point x="240" y="512" type="line"/>
      <point x="385" y="512" type="line"/>
      <point x="245" y="127" type="line"/>
    </contour>
  </outline>
</glyph>
<glyph name="w" format="1">
  <advance width="695"/>
  <unicode hex="0077"/>
  <outline>
    <contour>
      <point x="65" y="127" type="line"/>
      <point x="-55" y="512" type="line"/>
      <point x="90" y="512" type="line"/>
      <point x="143" y="255" type="line"/>
      <point x="220" y="512" type="line"/>
      <point x="335" y="512" type="line"/>
      <point x="418" y="255" type="line"/>
      <point x="465" y="512" type="line"/>
      <point x="610" y="512" type="line"/>
      <point x="500" y="127" type="line"/>
      <point x="355" y="127" type="line"/>
      <point x="279" y="334" type="line"/>
      <point x="210" y="127" type="line"/>
    </contour>
  </outline>
</glyph>
<glyph name="x" format="1">
  <advance width="465"/>
  <unicode hex="0078"/>
  <outline>
    <contour>
      <point x="162" y="425" type="line"/>
      <point x="230" y="512" type="line"/>
      <point x="385" y="512" type="line"/>
      <point x="240" y="326" type="line"/>
      <point x="395" y="127" type="line"/>
      <point x="240" y="127" type="line"/>
      <point x="162" y="226" type="line"/>
      <point x="85" y="127" type="line"/>
      <point x="-70" y="127" type="line"/>
      <point x="85" y="326" type="line"/>
      <point x="-60" y="512" type="line"/>
      <point x="95" y="512" type="line"/>
    </contour>
  </outline>
</glyph>
<glyph name="y" format="1">
  <advance width="470"/>
  <unicode hex="0079"/>
  <outline>
    <contour>
      <point x="110" y="158" type="line"/>
      <point x="-60" y="512" type="line"/>
      <point x="95" y="512" type="line"/>
      <point x="169" y="309" type="line"/>
      <point x="250" y="512" type="line"/>
      <point x="390" y="512" type="line"/>
      <point x="170" y="-18" type="line"/>
      <point x="40" y="-18" type="line"/>
    </contour>
  </outline>
</glyph>
